<svg version="1.1" xmlns="http://www.w3.org/2000/svg" viewBox="0 0 262 265">
    <style type="text/css">
        .zero-loop { fill: none; }
        .one-or-zero { fill: #0d0d0d; }
    </style>
    <path class="zero-loop" d="M120.3,221c-3,0-5.5,2.4-5.6,5.4v17.4c0,3,2.4,5.4,5.4,5.4c3,0,5.5-2.4,5.6-5.4v-17.4
        C125.7,223.4,123.3,221,120.3,221z"/>
    <path class="zero-loop" d="M120,141.2v-17.4c0-3-2.4-5.4-5.4-5.4c-3,0-5.5,2.4-5.6,5.4v17.4c0,3,2.4,5.4,5.4,5.4
        C117.5,146.7,120,144.2,120,141.2z"/>
    <path class="zero-loop" d="M87.3,221c-3,0-5.5,2.4-5.6,5.4v17.4c0,3,2.4,5.4,5.4,5.4c3,0,5.5-2.4,5.6-5.4v-17.4
        C92.7,223.4,90.3,221,87.3,221z"/>
    <path class="zero-loop" d="M148.3,118.2c-3,0-5.5,2.5-5.4,5.6v17.4c0,0,0,0.1,0,0.1c0,3,2.5,5.5,5.6,5.4c3,0,5.5-2.5,5.4-5.6v-17.4
        c0,0,0-0.1,0-0.1C153.8,120.6,151.3,118.2,148.3,118.2z"/>
    <path class="zero-loop" d="M148.3,169.5c-3,0-5.5,2.5-5.4,5.6v17.4c0,0,0,0.1,0,0.1c0,3,2.5,5.5,5.6,5.4c3,0,5.5-2.5,5.4-5.6v-17.4
        c0,0,0-0.1,0-0.1C153.8,171.9,151.3,169.5,148.3,169.5z"/>
    <path class="zero-loop" d="M148.3,66.9c-3,0-5.5,2.5-5.4,5.6v17.4c0,0,0,0.1,0,0.1c0,3,2.5,5.5,5.6,5.4c3,0,5.5-2.5,5.4-5.6V72.5
        c0,0,0-0.1,0-0.1C153.8,69.3,151.3,66.9,148.3,66.9z"/>
    <path class="zero-loop" d="M54.3,221c-3,0-5.5,2.4-5.6,5.4v17.4c0,3,2.4,5.4,5.4,5.4c3,0,5.5-2.4,5.6-5.4v-17.4
        C59.7,223.4,57.3,221,54.3,221z"/>
    <path class="zero-loop" d="M21.3,169.7c-3,0-5.5,2.4-5.6,5.4v17.4c0,3,2.4,5.4,5.4,5.4c3,0,5.5-2.4,5.6-5.4v-17.4
        C26.7,172.1,24.3,169.7,21.3,169.7z"/>
    <path class="zero-loop" d="M114.4,95.3c3,0,5.5-2.4,5.6-5.4V72.5c0-3-2.4-5.4-5.4-5.4c-3,0-5.5,2.4-5.6,5.4v17.4
        C109,92.9,111.4,95.3,114.4,95.3z"/>
    <path class="zero-loop" d="M21.3,15.8c-3,0-5.5,2.4-5.6,5.4v17.4c0,3,2.4,5.4,5.4,5.4c3,0,5.5-2.4,5.6-5.4V21.2
        C26.7,18.2,24.3,15.8,21.3,15.8z"/>
    <path class="zero-loop" d="M21.3,221c-3,0-5.5,2.4-5.6,5.4v17.4c0,3,2.4,5.4,5.4,5.4c3,0,5.5-2.4,5.6-5.4v-17.4
        C26.7,223.4,24.3,221,21.3,221z"/>
    <path class="zero-loop" d="M21.3,67.1c-3,0-5.5,2.4-5.6,5.4v17.4c0,3,2.4,5.4,5.4,5.4c3,0,5.5-2.4,5.6-5.4V72.5
        C26.7,69.5,24.3,67.1,21.3,67.1z"/>
    <path class="zero-loop" d="M148.3,15.6c-3,0-5.5,2.5-5.4,5.6v17.4c0,0,0,0.1,0,0.1c0,3,2.5,5.5,5.6,5.4c3,0,5.5-2.5,5.4-5.6V21.2
        c0,0,0-0.1,0-0.1C153.8,18,151.3,15.6,148.3,15.6z"/>
    <path class="zero-loop" d="M21.3,118.4c-3,0-5.5,2.4-5.6,5.4v17.4c0,3,2.4,5.4,5.4,5.4c3,0,5.5-2.4,5.6-5.4v-17.4
        C26.7,120.8,24.3,118.4,21.3,118.4z"/>
    <path class="zero-loop" d="M114.4,44c3,0,5.5-2.4,5.6-5.4V21.2c0-3-2.4-5.4-5.4-5.4c-3,0-5.5,2.4-5.6,5.4v17.4
        C109,41.6,111.4,44,114.4,44z"/>
    <path class="zero-loop" d="M239.8,221c-3,0-5.5,2.4-5.6,5.4v17.4c0,3,2.4,5.4,5.4,5.4c3,0,5.5-2.4,5.6-5.4v-17.4
        C245.2,223.4,242.8,221,239.8,221z"/>
    <path class="zero-loop" d="M240.7,15.6c-3,0-5.5,2.5-5.4,5.6v17.4c0,0,0,0.1,0,0.1c0,3,2.5,5.5,5.6,5.4c3,0,5.5-2.5,5.4-5.6V21.2
        c0,0,0-0.1,0-0.1C246.3,18,243.8,15.6,240.7,15.6z"/>
    <path class="zero-loop" d="M240.7,118.2c-3,0-5.5,2.5-5.4,5.6v17.4c0,0,0,0.1,0,0.1c0,3,2.5,5.5,5.6,5.4c3,0,5.5-2.5,5.4-5.6v-17.4
        c0,0,0-0.1,0-0.1C246.3,120.6,243.8,118.2,240.7,118.2z"/>
    <path class="zero-loop" d="M207.8,118.2c-3,0-5.5,2.5-5.4,5.6v17.4c0,0,0,0.1,0,0.1c0,3,2.5,5.5,5.6,5.4c3,0,5.5-2.5,5.4-5.6v-17.4
        c0,0,0-0.1,0-0.1C213.3,120.6,210.8,118.2,207.8,118.2z"/>
    <path class="zero-loop" d="M181.4,221c-3,0-5.5,2.4-5.6,5.4v17.4c0,3,2.4,5.4,5.4,5.4c3,0,5.5-2.4,5.6-5.4v-17.4
        C186.8,223.4,184.4,221,181.4,221z"/>
    <path class="zero-loop" d="M240.7,66.9c-3,0-5.5,2.5-5.4,5.6v17.4c0,0,0,0.1,0,0.1c0,3,2.5,5.5,5.6,5.4c3,0,5.5-2.5,5.4-5.6V72.5
        c0,0,0-0.1,0-0.1C246.3,69.3,243.8,66.9,240.7,66.9z"/>
    <path class="one-or-zero" d="M54.2,49.8c1.6,0,2.8-1.3,2.8-2.8V12.8c0-1.6-1.3-2.8-2.8-2.8c-1.6,0-2.8,1.3-2.8,2.8c0,0,0,0,0,0v34.1
        C51.4,48.5,52.6,49.8,54.2,49.8z"/>
    <path class="one-or-zero" d="M54.2,101.1c1.6,0,2.8-1.3,2.8-2.8V64.1c0-1.6-1.3-2.8-2.8-2.8c-1.6,0-2.8,1.3-2.8,2.8c0,0,0,0,0,0v34.1
        C51.4,99.8,52.6,101.1,54.2,101.1z"/>
    <path class="one-or-zero" d="M54.2,152.4c1.6,0,2.8-1.3,2.8-2.8v-34.1c0-1.6-1.3-2.8-2.8-2.8c-1.6,0-2.8,1.3-2.8,2.8c0,0,0,0,0,0v34.1
        C51.4,151.1,52.6,152.4,54.2,152.4z"/>
    <path class="one-or-zero" d="M54.2,203.7c1.6,0,2.8-1.3,2.8-2.8v-34.1c0-1.6-1.3-2.8-2.8-2.8c-1.6,0-2.8,1.3-2.8,2.8c0,0,0,0,0,0v34.1
        C51.4,202.4,52.6,203.7,54.2,203.7z"/>
    <path class="one-or-zero" d="M181.4,49.8c1.6,0,2.8-1.3,2.8-2.8V12.8c0-1.6-1.3-2.8-2.8-2.8c-1.6,0-2.8,1.3-2.8,2.8c0,0,0,0,0,0v34.1
        C178.5,48.5,179.8,49.8,181.4,49.8z"/>
    <path class="one-or-zero" d="M181.4,101.1c1.6,0,2.8-1.3,2.8-2.8V64.1c0-1.6-1.3-2.8-2.8-2.8c-1.6,0-2.8,1.3-2.8,2.8c0,0,0,0,0,0v34.1
        C178.5,99.8,179.8,101.1,181.4,101.1z"/>
    <path class="one-or-zero" d="M181.4,152.4c1.6,0,2.8-1.3,2.8-2.8v-34.1c0-1.6-1.3-2.8-2.8-2.8c-1.6,0-2.8,1.3-2.8,2.8c0,0,0,0,0,0v34.1
        C178.5,151.1,179.8,152.4,181.4,152.4z"/>
    <path class="one-or-zero" d="M181.4,203.7c1.6,0,2.8-1.3,2.8-2.8v-34.1c0-1.6-1.3-2.8-2.8-2.8c-1.6,0-2.8,1.3-2.8,2.8c0,0,0,0,0,0v34.1
        C178.5,202.4,179.8,203.7,181.4,203.7z"/>
    <path class="one-or-zero" d="M150.2,215.2c-1.6,0-2.8,1.3-2.8,2.8c0,0,0,0,0,0v34.1c0,1.6,1.3,2.8,2.8,2.8c1.6,0,2.8-1.3,2.8-2.8v-34.1
        C153.1,216.5,151.8,215.2,150.2,215.2z"/>
    <path class="one-or-zero" d="M210.5,163.9c-1.6,0-2.8,1.3-2.8,2.8c0,0,0,0,0,0v34.1c0,1.6,1.3,2.8,2.8,2.8c1.6,0,2.8-1.3,2.8-2.8v-34.1
        C213.4,165.2,212.1,163.9,210.5,163.9z"/>
    <path class="one-or-zero" d="M210.5,215.2c-1.6,0-2.8,1.3-2.8,2.8c0,0,0,0,0,0v34.1c0,1.6,1.3,2.8,2.8,2.8c1.6,0,2.8-1.3,2.8-2.8v-34.1
        C213.4,216.5,212.1,215.2,210.5,215.2z"/>
    <path class="one-or-zero" d="M243.6,200.9v-34.1c0-1.6-1.3-2.8-2.8-2.8c-1.6,0-2.8,1.3-2.8,2.8c0,0,0,0,0,0v34.1c0,1.6,1.3,2.8,2.8,2.8
        C242.4,203.7,243.6,202.4,243.6,200.9z"/>
    <path class="one-or-zero" d="M80.6,49.8c1.6,0,2.9-1.2,2.9-2.8c0,0,0-0.1,0-0.1V12.8c0-1.6-1.3-2.8-2.8-2.8c-1.6,0-2.8,1.3-2.8,2.8v34.1
        C77.8,48.5,79,49.8,80.6,49.8z"/>
    <path class="one-or-zero" d="M80.6,101.1c1.6,0,2.9-1.2,2.9-2.8c0,0,0-0.1,0-0.1V64.1c0-1.6-1.3-2.8-2.8-2.8c-1.6,0-2.8,1.3-2.8,2.8v34.1
        C77.8,99.8,79,101.1,80.6,101.1z"/>
    <path class="one-or-zero" d="M80.6,152.4c1.6,0,2.9-1.2,2.9-2.8c0,0,0-0.1,0-0.1v-34.1c0-1.6-1.3-2.8-2.8-2.8c-1.6,0-2.8,1.3-2.8,2.8v34.1
        C77.8,151.1,79,152.4,80.6,152.4z"/>
    <path class="one-or-zero" d="M80.6,203.8c1.6,0,2.9-1.2,2.9-2.8c0,0,0-0.1,0-0.1v-34.1c0-1.6-1.3-2.8-2.8-2.8c-1.6,0-2.8,1.3-2.8,2.8v34.1
        C77.8,202.4,79,203.7,80.6,203.8z"/>
    <path class="one-or-zero" d="M112.6,201c0,0,0-0.1,0-0.1v-34.1c0-1.6-1.3-2.8-2.8-2.8c-1.6,0-2.8,1.3-2.8,2.8v34.1c0,1.6,1.2,2.9,2.8,2.9
        C111.3,203.8,112.6,202.5,112.6,201z"/>
    <path class="one-or-zero" d="M207.7,49.8c1.6,0,2.9-1.2,2.9-2.8c0,0,0-0.1,0-0.1V12.8c0-1.6-1.3-2.8-2.8-2.8c-1.6,0-2.8,1.3-2.8,2.8v34.1
        C204.9,48.5,206.2,49.8,207.7,49.8z"/>
    <path class="one-or-zero" d="M207.7,101.1c1.6,0,2.9-1.2,2.9-2.8c0,0,0-0.1,0-0.1V64.1c0-1.6-1.3-2.8-2.8-2.8c-1.6,0-2.8,1.3-2.8,2.8v34.1
        C204.9,99.8,206.2,101.1,207.7,101.1z"/>
    <path class="one-or-zero" d="M21.2,10C15,10,10,15,10,21.2v17.4c0,6.2,5,11.2,11.2,11.2c6.2,0,11.2-5,11.2-11.2V21.2C32.4,15,27.4,10,21.2,10z
            M26.7,38.6c0,3-2.5,5.5-5.6,5.4c-3,0-5.4-2.4-5.4-5.4V21.2c0-3,2.5-5.5,5.6-5.4c3,0,5.4,2.4,5.4,5.4V38.6z"/>
    <path class="one-or-zero" d="M21.2,61.3c-6.2,0-11.2,5-11.2,11.2v17.4c0,6.2,5,11.2,11.2,11.2c6.2,0,11.2-5,11.2-11.2V72.5
        C32.4,66.3,27.4,61.3,21.2,61.3z M26.7,89.9c0,3-2.5,5.5-5.6,5.4c-3,0-5.4-2.4-5.4-5.4V72.5c0-3,2.5-5.5,5.6-5.4
        c3,0,5.4,2.4,5.4,5.4V89.9z"/>
    <path class="one-or-zero" d="M21.2,112.6c-6.2,0-11.2,5-11.2,11.2v17.4c0,6.2,5,11.2,11.2,11.2c6.2,0,11.2-5,11.2-11.2v-17.4
        C32.4,117.6,27.4,112.6,21.2,112.6z M26.7,141.2c0,3-2.5,5.5-5.6,5.4c-3,0-5.4-2.4-5.4-5.4v-17.4c0-3,2.5-5.5,5.6-5.4
        c3,0,5.4,2.4,5.4,5.4V141.2z"/>
    <path class="one-or-zero" d="M21.2,163.9c-6.2,0-11.2,5-11.2,11.2v17.4c0,6.2,5,11.2,11.2,11.2c6.2,0,11.2-5,11.2-11.2v-17.4
        C32.4,168.9,27.4,163.9,21.2,163.9z M26.7,192.5c0,3-2.5,5.5-5.6,5.4c-3,0-5.4-2.4-5.4-5.4v-17.4c0-3,2.5-5.5,5.6-5.4
        c3,0,5.4,2.4,5.4,5.4V192.5z"/>
    <path class="one-or-zero" d="M21.2,215.2c-6.2,0-11.2,5-11.2,11.2v17.4c0,6.2,5,11.2,11.2,11.2c6.2,0,11.2-5,11.2-11.2v-17.4
        C32.4,220.2,27.4,215.2,21.2,215.2z M26.7,243.8c0,3-2.5,5.5-5.6,5.4c-3,0-5.4-2.4-5.4-5.4v-17.4c0-3,2.5-5.5,5.6-5.4
        c3,0,5.4,2.4,5.4,5.4V243.8z"/>
    <path class="one-or-zero" d="M54.2,215.2c-6.2,0-11.2,5-11.2,11.2v17.4c0,6.2,5,11.2,11.2,11.2c6.2,0,11.2-5,11.2-11.2v-17.4
        C65.4,220.2,60.4,215.2,54.2,215.2z M59.7,243.8c0,3-2.5,5.5-5.6,5.4c-3,0-5.4-2.4-5.4-5.4v-17.4c0-3,2.5-5.5,5.6-5.4
        c3,0,5.4,2.4,5.4,5.4V243.8z"/>
    <path class="one-or-zero" d="M87.2,215.2c-6.2,0-11.2,5-11.2,11.2v17.4c0,6.2,5,11.2,11.2,11.2c6.2,0,11.2-5,11.2-11.2v-17.4
        C98.4,220.2,93.4,215.2,87.2,215.2z M92.7,243.8c0,3-2.5,5.5-5.6,5.4c-3,0-5.4-2.4-5.4-5.4v-17.4c0-3,2.5-5.5,5.6-5.4
        c3,0,5.4,2.4,5.4,5.4V243.8z"/>
    <path class="one-or-zero" d="M120.2,215.2c-6.2,0-11.2,5-11.2,11.2v17.4c0,6.2,5,11.2,11.2,11.2c6.2,0,11.2-5,11.2-11.2v-17.4
        C131.4,220.2,126.4,215.2,120.2,215.2z M125.7,243.8c0,3-2.5,5.5-5.6,5.4c-3,0-5.4-2.4-5.4-5.4v-17.4c0-3,2.5-5.5,5.6-5.4
        c3,0,5.4,2.4,5.4,5.4V243.8z"/>
    <path class="one-or-zero" d="M181.4,215.2c-6.2,0-11.2,5-11.2,11.2v17.4c0,6.2,5,11.2,11.2,11.2c6.2,0,11.2-5,11.2-11.2v-17.4
        C192.6,220.2,187.6,215.2,181.4,215.2z M186.9,243.8c0,3-2.5,5.5-5.6,5.4c-3,0-5.4-2.4-5.4-5.4v-17.4c0-3,2.5-5.5,5.6-5.4
        c3,0,5.4,2.4,5.4,5.4V243.8z"/>
    <path class="one-or-zero" d="M239.7,215.2c-6.2,0-11.2,5-11.2,11.2v17.4c0,6.2,5,11.2,11.2,11.2c6.2,0,11.2-5,11.2-11.2v-17.4
        C250.9,220.2,245.9,215.2,239.7,215.2z M245.2,243.8c0,3-2.5,5.5-5.6,5.4c-3,0-5.4-2.4-5.4-5.4v-17.4c0-3,2.5-5.5,5.6-5.4
        c3,0,5.4,2.4,5.4,5.4V243.8z"/>
    <path class="one-or-zero" d="M148.4,10c-6.2,0-11.2,5-11.2,11.2v17.4c0,6.2,5,11.2,11.2,11.2c6.2,0,11.2-5,11.2-11.2V21.2C159.6,15,154.6,10,148.4,10z
            M153.9,21.2v17.4c0,3-2.4,5.5-5.4,5.6c-3,0-5.5-2.4-5.6-5.4c0,0,0-0.1,0-0.1V21.2c0-3,2.4-5.5,5.4-5.6s5.5,2.4,5.6,5.4
        C153.9,21.1,153.9,21.1,153.9,21.2z"/>
    <path class="one-or-zero" d="M148.4,61.3c-6.2,0-11.2,5-11.2,11.2v17.4c0,6.2,5,11.2,11.2,11.2c6.2,0,11.2-5,11.2-11.2V72.5
        C159.6,66.3,154.6,61.3,148.4,61.3z M153.9,72.5v17.4c0,3-2.4,5.5-5.4,5.6c-3,0-5.5-2.4-5.6-5.4c0,0,0-0.1,0-0.1V72.5
        c0-3,2.4-5.5,5.4-5.6s5.5,2.4,5.6,5.4C153.9,72.4,153.9,72.4,153.9,72.5z"/>
    <path class="one-or-zero" d="M148.4,112.6c-6.2,0-11.2,5-11.2,11.2v17.4c0,6.2,5,11.2,11.2,11.2c6.2,0,11.2-5,11.2-11.2v-17.4
        C159.6,117.6,154.6,112.6,148.4,112.6z M153.9,123.8v17.4c0,3-2.4,5.5-5.4,5.6c-3,0-5.5-2.4-5.6-5.4c0,0,0-0.1,0-0.1v-17.4
        c0-3,2.4-5.5,5.4-5.6c3,0,5.5,2.4,5.6,5.4C153.9,123.7,153.9,123.8,153.9,123.8z"/>
    <path class="one-or-zero" d="M148.4,163.9c-6.2,0-11.2,5-11.2,11.2v17.4c0,6.2,5,11.2,11.2,11.2c6.2,0,11.2-5,11.2-11.2v-17.4
        C159.6,168.9,154.6,163.9,148.4,163.9z M153.9,175.1v17.4c0,3-2.4,5.5-5.4,5.6c-3,0-5.5-2.4-5.6-5.4c0,0,0-0.1,0-0.1v-17.4
        c0-3,2.4-5.5,5.4-5.6c3,0,5.5,2.4,5.6,5.4C153.9,175,153.9,175.1,153.9,175.1z"/>
    <path class="one-or-zero" d="M240.8,10c-6.2,0-11.2,5-11.2,11.2v17.4c0,6.2,5,11.2,11.2,11.2c6.2,0,11.2-5,11.2-11.2V21.2C252,15,247,10,240.8,10z
            M246.3,21.2v17.4c0,3-2.4,5.5-5.4,5.6c-3,0-5.5-2.4-5.6-5.4c0,0,0-0.1,0-0.1V21.2c0-3,2.4-5.5,5.4-5.6s5.5,2.4,5.6,5.4
        C246.3,21.1,246.3,21.1,246.3,21.2z"/>
    <path class="one-or-zero" d="M240.8,61.3c-6.2,0-11.2,5-11.2,11.2v17.4c0,6.2,5,11.2,11.2,11.2c6.2,0,11.2-5,11.2-11.2V72.5
        C252,66.3,247,61.3,240.8,61.3z M246.3,72.5v17.4c0,3-2.4,5.5-5.4,5.6c-3,0-5.5-2.4-5.6-5.4c0,0,0-0.1,0-0.1V72.5
        c0-3,2.4-5.5,5.4-5.6s5.5,2.4,5.6,5.4C246.3,72.4,246.3,72.4,246.3,72.5z"/>
    <path class="one-or-zero" d="M240.8,112.6c-6.2,0-11.2,5-11.2,11.2v17.4c0,6.2,5,11.2,11.2,11.2c6.2,0,11.2-5,11.2-11.2v-17.4
        C252,117.6,247,112.6,240.8,112.6z M246.3,123.8v17.4c0,3-2.4,5.5-5.4,5.6c-3,0-5.5-2.4-5.6-5.4c0,0,0-0.1,0-0.1v-17.4
        c0-3,2.4-5.5,5.4-5.6c3,0,5.5,2.4,5.6,5.4C246.3,123.7,246.3,123.8,246.3,123.8z"/>
    <path class="one-or-zero" d="M207.8,112.6c-6.2,0-11.2,5-11.2,11.2v17.4c0,6.2,5,11.2,11.2,11.2c6.2,0,11.2-5,11.2-11.2v-17.4
        C219,117.6,214,112.6,207.8,112.6z M213.3,123.8v17.4c0,3-2.4,5.5-5.4,5.6c-3,0-5.5-2.4-5.6-5.4c0,0,0-0.1,0-0.1v-17.4
        c0-3,2.4-5.5,5.4-5.6c3,0,5.5,2.4,5.6,5.4C213.3,123.7,213.3,123.8,213.3,123.8z"/>
    <path class="one-or-zero" d="M114.5,49.8c6.2,0,11.2-5,11.2-11.2V21.2c0-6.2-5-11.2-11.2-11.2c-6.2,0-11.2,5-11.2,11.2c0,0,0,0,0,0v17.4
        C103.3,44.8,108.3,49.8,114.5,49.8z M109,21.2c0-3,2.5-5.5,5.6-5.4c3,0,5.4,2.4,5.4,5.4v17.4c0,3-2.5,5.5-5.6,5.4
        c-3,0-5.4-2.4-5.4-5.4V21.2z"/>
    <path class="one-or-zero" d="M114.5,101.1c6.2,0,11.2-5,11.2-11.2V72.5c0-6.2-5-11.2-11.2-11.2c-6.2,0-11.2,5-11.2,11.2c0,0,0,0,0,0v17.4
        C103.3,96.1,108.3,101.1,114.5,101.1z M109,72.5c0-3,2.5-5.5,5.6-5.4c3,0,5.4,2.4,5.4,5.4v17.4c0,3-2.5,5.5-5.6,5.4
        c-3,0-5.4-2.4-5.4-5.4V72.5z"/>
    <path class="one-or-zero" d="M125.7,141.2v-17.4c0-6.2-5-11.2-11.2-11.2c-6.2,0-11.2,5-11.2,11.2c0,0,0,0,0,0v17.4c0,6.2,5,11.2,11.2,11.2
        C120.7,152.4,125.7,147.4,125.7,141.2z M109,141.2v-17.4c0-3,2.5-5.5,5.6-5.4c3,0,5.4,2.4,5.4,5.4v17.4c0,3-2.5,5.5-5.6,5.4
        C111.4,146.6,109,144.2,109,141.2z"/>
</svg>
