<svg class="binary" data-name="binary" xmlns="http://www.w3.org/2000/svg" viewBox="0 0 173 173">
  <path fill="#0d0d0d" d="M8.038,47.528a3.038,3.038,0,0,0,3.038-3.038V8.038A3.038,3.038,0,1,0,5,8.038V44.49A3.038,3.038,0,0,0,8.038,47.528Z" transform="translate(-5 -5)"/>
  <path fill="#0d0d0d" d="M30.569,5a3.038,3.038,0,0,0-3.038,3.038V44.49a3.038,3.038,0,1,0,6.075,0V8.038A3.038,3.038,0,0,0,30.569,5Z" transform="translate(40.912 -5)"/>
  <path fill="#0d0d0d" d="M25.289,47.528A11.975,11.975,0,0,0,37.25,35.567V16.961a11.961,11.961,0,1,0-23.922,0V35.567A11.975,11.975,0,0,0,25.289,47.528ZM19.4,16.961a5.886,5.886,0,1,1,11.771,0V35.567a5.886,5.886,0,0,1-11.771,0Z" transform="translate(11.97 -5)"/>
  <path fill="#0d0d0d" d="M59.086,5A11.975,11.975,0,0,0,47.125,16.961V35.567a11.961,11.961,0,1,0,23.922,0V16.961A11.975,11.975,0,0,0,59.086,5Zm5.886,30.567a5.886,5.886,0,0,1-11.771,0V16.961a5.886,5.886,0,1,1,11.771,0Z" transform="translate(80.838 -5)"/>
  <path fill="#0d0d0d" d="M47.82,47.528A11.975,11.975,0,0,0,59.781,35.567V16.961a11.961,11.961,0,1,0-23.922,0V35.567A11.975,11.975,0,0,0,47.82,47.528ZM41.935,16.961a5.886,5.886,0,1,1,11.771,0V35.567a5.886,5.886,0,0,1-11.771,0Z" transform="translate(57.882 -5)"/>
  <path fill="#0d0d0d" d="M56.038,23A3.038,3.038,0,0,0,53,26.038V62.49a3.038,3.038,0,1,0,6.075,0V26.038A3.038,3.038,0,0,0,56.038,23Z" transform="translate(92.809 31.678)"/>
  <path fill="#0d0d0d" d="M33.506,23a3.038,3.038,0,0,0-3.038,3.038V62.49a3.038,3.038,0,1,0,6.075,0V26.038A3.038,3.038,0,0,0,33.506,23Z" transform="translate(46.897 31.678)"/>
  <path fill="#0d0d0d" d="M50.758,23A11.975,11.975,0,0,0,38.8,34.961V53.567a11.961,11.961,0,0,0,23.922,0V34.961A11.975,11.975,0,0,0,50.758,23Zm5.886,30.567a5.886,5.886,0,1,1-11.771,0V34.961a5.886,5.886,0,1,1,11.771,0Z" transform="translate(63.868 31.678)"/>
  <path fill="#0d0d0d" d="M16.961,23A11.975,11.975,0,0,0,5,34.961V53.567a11.961,11.961,0,0,0,23.922,0V34.961A11.975,11.975,0,0,0,16.961,23Zm5.886,30.567a5.886,5.886,0,1,1-11.771,0V34.961a5.886,5.886,0,0,1,11.771,0Z" transform="translate(-5 31.678)"/>
  <path fill="#0d0d0d" d="M28.227,23A11.975,11.975,0,0,0,16.266,34.961V53.567a11.961,11.961,0,0,0,23.922,0V34.961A11.975,11.975,0,0,0,28.227,23Zm5.886,30.567a5.886,5.886,0,1,1-11.771,0V34.961a5.886,5.886,0,1,1,11.771,0Z" transform="translate(17.956 31.678)"/>
  <path fill="#0d0d0d" d="M8.038,41A3.038,3.038,0,0,0,5,44.038V80.49a3.038,3.038,0,0,0,6.075,0V44.038A3.038,3.038,0,0,0,8.038,41Z" transform="translate(-5 68.357)"/>
  <path fill="#0d0d0d" d="M30.569,41a3.038,3.038,0,0,0-3.038,3.038V80.49a3.038,3.038,0,0,0,6.075,0V44.038A3.038,3.038,0,0,0,30.569,41Z" transform="translate(40.912 68.357)"/>
  <path fill="#0d0d0d" d="M25.289,41A11.975,11.975,0,0,0,13.328,52.961V71.567a11.961,11.961,0,1,0,23.922,0V52.961A11.975,11.975,0,0,0,25.289,41Zm5.886,30.567a5.886,5.886,0,1,1-11.771,0V52.961a5.886,5.886,0,1,1,11.771,0Z" transform="translate(11.97 68.357)"/>
  <path fill="#0d0d0d" d="M59.086,41A11.975,11.975,0,0,0,47.125,52.961V71.567a11.961,11.961,0,1,0,23.922,0V52.961A11.975,11.975,0,0,0,59.086,41Zm5.886,30.567a5.886,5.886,0,1,1-11.771,0V52.961a5.886,5.886,0,1,1,11.771,0Z" transform="translate(80.838 68.357)"/>
  <path fill="#0d0d0d" d="M47.82,41A11.975,11.975,0,0,0,35.859,52.961V71.567a11.961,11.961,0,1,0,23.922,0V52.961A11.975,11.975,0,0,0,47.82,41Zm5.886,30.567a5.886,5.886,0,1,1-11.771,0V52.961a5.886,5.886,0,1,1,11.771,0Z" transform="translate(57.882 68.357)"/>
</svg>
